<svg xmlns="http://www.w3.org/2000/svg" viewBox="0 0 280 520" direction="rtl">
  <rect width="280" height="520" fill="#0F0F1A"/>

  <!-- Header -->
  <rect x="0" y="0" width="280" height="44" fill="#141421"/>
  <text x="260" y="28" text-anchor="end" fill="#FFF" font-family="system-ui" font-size="14" font-weight="700">📊 לוח בקרה</text>

  <!-- Tabs -->
  <rect x="0" y="44" width="280" height="36" fill="#0F0F1A"/>
  <rect x="14" y="52" width="54" height="20" rx="10" fill="#191926"/>
  <text x="41" y="66" text-anchor="middle" fill="#9CA3AF" font-family="system-ui" font-size="10">סקירה</text>
  <rect x="74" y="52" width="54" height="20" rx="10" fill="#191926"/>
  <text x="101" y="66" text-anchor="middle" fill="#9CA3AF" font-family="system-ui" font-size="10">ספקים</text>
  <rect x="134" y="52" width="68" height="20" rx="10" fill="rgba(99,102,241,0.2)"/>
  <text x="168" y="66" text-anchor="middle" fill="#6366F1" font-family="system-ui" font-size="10" font-weight="700">גיאוגרפיה</text>

  <!-- Section title -->
  <text x="258" y="104" text-anchor="end" fill="#FFF" font-family="system-ui" font-size="14" font-weight="700">פעילות לפי עיר (30 יום)</text>

  <!-- Header row -->
  <rect x="14" y="118" width="252" height="26" fill="#191926"/>
  <text x="258" y="134" text-anchor="end" fill="#9CA3AF" font-family="system-ui" font-size="9" font-weight="700">עיר</text>
  <text x="160" y="134" text-anchor="end" fill="#9CA3AF" font-family="system-ui" font-size="9" font-weight="700">בקשות</text>
  <text x="112" y="134" text-anchor="end" fill="#9CA3AF" font-family="system-ui" font-size="9" font-weight="700">ביקורות</text>
  <text x="58" y="134" text-anchor="end" fill="#9CA3AF" font-family="system-ui" font-size="9" font-weight="700">הכנסות</text>

  <!-- Rows with status badges -->
  <g font-family="system-ui">
    <rect x="14" y="144" width="252" height="42" fill="#141421"/>
    <text x="258" y="162" text-anchor="end" fill="#FFF" font-size="13" font-weight="600">חדרה</text>
    <text x="258" y="178" text-anchor="end" fill="#22C55E" font-size="9" font-weight="700">תקין</text>
    <text x="160" y="170" text-anchor="end" fill="#E5E7EB" font-size="11">28</text>
    <text x="112" y="170" text-anchor="end" fill="#E5E7EB" font-size="11">9</text>
    <text x="58" y="170" text-anchor="end" fill="#22C55E" font-size="11" font-weight="600">₪4,820</text>

    <rect x="14" y="186" width="252" height="42" fill="#141421"/>
    <text x="258" y="204" text-anchor="end" fill="#FFF" font-size="13" font-weight="600">נתניה</text>
    <text x="258" y="220" text-anchor="end" fill="#22C55E" font-size="9" font-weight="700">תקין</text>
    <text x="160" y="212" text-anchor="end" fill="#E5E7EB" font-size="11">22</text>
    <text x="112" y="212" text-anchor="end" fill="#E5E7EB" font-size="11">7</text>
    <text x="58" y="212" text-anchor="end" fill="#22C55E" font-size="11" font-weight="600">₪3,150</text>

    <rect x="14" y="228" width="252" height="42" fill="#141421"/>
    <text x="258" y="246" text-anchor="end" fill="#FFF" font-size="13" font-weight="600">תל אביב</text>
    <text x="258" y="262" text-anchor="end" fill="#F59E0B" font-size="9" font-weight="700">חלש</text>
    <text x="160" y="254" text-anchor="end" fill="#E5E7EB" font-size="11">15</text>
    <text x="112" y="254" text-anchor="end" fill="#E5E7EB" font-size="11">2</text>
    <text x="58" y="254" text-anchor="end" fill="#22C55E" font-size="11" font-weight="600">₪820</text>

    <rect x="14" y="270" width="252" height="42" fill="#141421"/>
    <text x="258" y="288" text-anchor="end" fill="#FFF" font-size="13" font-weight="600">רמת גן</text>
    <text x="258" y="304" text-anchor="end" fill="#F59E0B" font-size="9" font-weight="700">חלש</text>
    <text x="160" y="296" text-anchor="end" fill="#E5E7EB" font-size="11">10</text>
    <text x="112" y="296" text-anchor="end" fill="#E5E7EB" font-size="11">1</text>
    <text x="58" y="296" text-anchor="end" fill="#22C55E" font-size="11" font-weight="600">₪350</text>

    <rect x="14" y="312" width="252" height="42" fill="rgba(239,68,68,0.08)"/>
    <text x="258" y="330" text-anchor="end" fill="#FFF" font-size="13" font-weight="600">חיפה</text>
    <text x="258" y="346" text-anchor="end" fill="#EF4444" font-size="9" font-weight="700">חסר היצע</text>
    <text x="160" y="338" text-anchor="end" fill="#E5E7EB" font-size="11">8</text>
    <text x="112" y="338" text-anchor="end" fill="#EF4444" font-size="11">0</text>
    <text x="58" y="338" text-anchor="end" fill="#6B7280" font-size="11">—</text>

    <rect x="14" y="354" width="252" height="42" fill="#141421"/>
    <text x="258" y="372" text-anchor="end" fill="#FFF" font-size="13" font-weight="600">כפר סבא</text>
    <text x="258" y="388" text-anchor="end" fill="#22C55E" font-size="9" font-weight="700">תקין</text>
    <text x="160" y="380" text-anchor="end" fill="#E5E7EB" font-size="11">6</text>
    <text x="112" y="380" text-anchor="end" fill="#E5E7EB" font-size="11">3</text>
    <text x="58" y="380" text-anchor="end" fill="#22C55E" font-size="11" font-weight="600">₪1,310</text>

    <rect x="14" y="396" width="252" height="42" fill="rgba(239,68,68,0.08)"/>
    <text x="258" y="414" text-anchor="end" fill="#FFF" font-size="13" font-weight="600">ירושלים</text>
    <text x="258" y="430" text-anchor="end" fill="#64748B" font-size="9" font-weight="700">אין פעילות</text>
    <text x="160" y="422" text-anchor="end" fill="#6B7280" font-size="11">0</text>
    <text x="112" y="422" text-anchor="end" fill="#6B7280" font-size="11">0</text>
    <text x="58" y="422" text-anchor="end" fill="#6B7280" font-size="11">—</text>
  </g>
</svg>
