<svg xmlns="http://www.w3.org/2000/svg" viewBox="0 0 280 620" direction="rtl">
  <rect width="280" height="620" fill="#0F0F1A"/>

  <!-- Header -->
  <rect x="0" y="0" width="280" height="58" fill="#141421"/>
  <rect x="14" y="16" width="26" height="26" rx="8" fill="#191926"/>
  <text x="27" y="34" text-anchor="middle" fill="#E5E7EB" font-family="system-ui" font-size="14">←</text>
  <text x="260" y="28" text-anchor="end" fill="#FFF" font-family="system-ui" font-size="14" font-weight="700">שלומי אינסטלטור</text>
  <text x="260" y="46" text-anchor="end" fill="#9CA3AF" font-family="system-ui" font-size="9">+972-52-100-0001 · אינסטלטור · חדרה</text>

  <!-- Stats grid (6 cards 3x2) -->
  <g transform="translate(14, 70)">
    <rect x="0" y="0" width="80" height="56" rx="10" fill="#191926"/>
    <text x="40" y="26" text-anchor="middle" fill="#FFF" font-family="system-ui" font-size="17" font-weight="700">18</text>
    <text x="40" y="44" text-anchor="middle" fill="#9CA3AF" font-family="system-ui" font-size="8">נשלחו</text>

    <rect x="86" y="0" width="80" height="56" rx="10" fill="#191926"/>
    <text x="126" y="26" text-anchor="middle" fill="#FFF" font-family="system-ui" font-size="17" font-weight="700">12</text>
    <text x="126" y="44" text-anchor="middle" fill="#9CA3AF" font-family="system-ui" font-size="8">התקבלו</text>

    <rect x="172" y="0" width="80" height="56" rx="10" fill="#191926"/>
    <text x="212" y="26" text-anchor="middle" fill="#22C55E" font-family="system-ui" font-size="17" font-weight="700">9</text>
    <text x="212" y="44" text-anchor="middle" fill="#9CA3AF" font-family="system-ui" font-size="8">הושלמו</text>

    <rect x="0" y="62" width="80" height="56" rx="10" fill="#191926"/>
    <text x="40" y="88" text-anchor="middle" fill="#F59E0B" font-family="system-ui" font-size="17" font-weight="700">4.8</text>
    <text x="40" y="106" text-anchor="middle" fill="#9CA3AF" font-family="system-ui" font-size="8">דירוג</text>

    <rect x="86" y="62" width="80" height="56" rx="10" fill="#191926"/>
    <text x="126" y="88" text-anchor="middle" fill="#E5E7EB" font-family="system-ui" font-size="13" font-weight="700">₪380</text>
    <text x="126" y="106" text-anchor="middle" fill="#9CA3AF" font-family="system-ui" font-size="8">מחיר ממוצע</text>

    <rect x="172" y="62" width="80" height="56" rx="10" fill="#191926"/>
    <text x="212" y="88" text-anchor="middle" fill="#22C55E" font-family="system-ui" font-size="13" font-weight="700">₪3,420</text>
    <text x="212" y="106" text-anchor="middle" fill="#9CA3AF" font-family="system-ui" font-size="8">סה"כ</text>
  </g>

  <!-- Section header + CSV -->
  <text x="260" y="224" text-anchor="end" fill="#FFF" font-family="system-ui" font-size="13" font-weight="700">היסטוריית עבודות (9)</text>
  <rect x="14" y="212" width="56" height="22" rx="6" fill="#6366F1"/>
  <text x="42" y="227" text-anchor="middle" fill="#FFF" font-family="system-ui" font-size="10" font-weight="700">⬇ CSV</text>

  <!-- Jobs list -->
  <g font-family="system-ui">
    <!-- Job 1 -->
    <rect x="14" y="244" width="252" height="60" rx="10" fill="#191926"/>
    <text x="258" y="262" text-anchor="end" fill="#E5E7EB" font-size="11" font-weight="600">req_a1b2c3…</text>
    <text x="258" y="278" text-anchor="end" fill="#9CA3AF" font-size="9">15/4/2026 · ⭐⭐⭐⭐⭐</text>
    <text x="258" y="294" text-anchor="end" fill="#9CA3AF" font-size="10" font-style="italic">"עבודה מצוינת, מקצועי ויעיל"</text>
    <text x="22" y="262" fill="#9CA3AF" font-size="9">הצעה: ₪380</text>
    <text x="22" y="280" fill="#6366F1" font-size="11" font-weight="700">שולם: ₪380</text>

    <!-- Job 2 -->
    <rect x="14" y="310" width="252" height="60" rx="10" fill="#191926"/>
    <text x="258" y="328" text-anchor="end" fill="#E5E7EB" font-size="11" font-weight="600">req_d4e5f6…</text>
    <text x="258" y="344" text-anchor="end" fill="#9CA3AF" font-size="9">12/4/2026 · ⭐⭐⭐⭐</text>
    <text x="258" y="360" text-anchor="end" fill="#9CA3AF" font-size="10" font-style="italic">"בסדר, איחר קצת"</text>
    <text x="22" y="328" fill="#9CA3AF" font-size="9">הצעה: ₪320</text>
    <text x="22" y="346" fill="#6366F1" font-size="11" font-weight="700">שולם: ₪350</text>

    <!-- Job 3 -->
    <rect x="14" y="376" width="252" height="60" rx="10" fill="#191926"/>
    <text x="258" y="394" text-anchor="end" fill="#E5E7EB" font-size="11" font-weight="600">req_g7h8i9…</text>
    <text x="258" y="410" text-anchor="end" fill="#9CA3AF" font-size="9">8/4/2026 · ⭐⭐⭐⭐⭐</text>
    <text x="258" y="426" text-anchor="end" fill="#9CA3AF" font-size="10" font-style="italic">"מקצוען אמיתי, ממליץ בחום"</text>
    <text x="22" y="394" fill="#9CA3AF" font-size="9">הצעה: ₪420</text>
    <text x="22" y="412" fill="#6366F1" font-size="11" font-weight="700">שולם: ₪420</text>

    <!-- Job 4 -->
    <rect x="14" y="442" width="252" height="60" rx="10" fill="#191926"/>
    <text x="258" y="460" text-anchor="end" fill="#E5E7EB" font-size="11" font-weight="600">req_j0k1l2…</text>
    <text x="258" y="476" text-anchor="end" fill="#9CA3AF" font-size="9">2/4/2026 · ⭐⭐⭐⭐</text>
    <text x="258" y="492" text-anchor="end" fill="#9CA3AF" font-size="10" font-style="italic">"עבודה טובה במחיר הוגן"</text>
    <text x="22" y="460" fill="#9CA3AF" font-size="9">הצעה: ₪280</text>
    <text x="22" y="478" fill="#6366F1" font-size="11" font-weight="700">שולם: ₪300</text>

    <!-- Job 5 -->
    <rect x="14" y="508" width="252" height="60" rx="10" fill="#191926"/>
    <text x="258" y="526" text-anchor="end" fill="#E5E7EB" font-size="11" font-weight="600">req_m3n4o5…</text>
    <text x="258" y="542" text-anchor="end" fill="#9CA3AF" font-size="9">28/3/2026 · ⭐⭐⭐⭐⭐</text>
    <text x="258" y="558" text-anchor="end" fill="#9CA3AF" font-size="10" font-style="italic">"הגיע בזמן, תיקן מהר"</text>
    <text x="22" y="526" fill="#9CA3AF" font-size="9">הצעה: ₪450</text>
    <text x="22" y="544" fill="#6366F1" font-size="11" font-weight="700">שולם: ₪450</text>
  </g>

  <!-- Hint -->
  <text x="140" y="598" text-anchor="middle" fill="#6B7280" font-family="system-ui" font-size="9" font-style="italic">לחץ על שורה לפרטי הבקשה</text>
</svg>
